<?xml version="1.0" standalone="no"?>
<!DOCTYPE svg PUBLIC "-//W3C//DTD SVG 20010904//EN"
 "http://www.w3.org/TR/2001/REC-SVG-20010904/DTD/svg10.dtd">
<svg version="1.0" xmlns="http://www.w3.org/2000/svg"
 width="500.000000pt" height="500.000000pt" viewBox="0 0 500.000000 500.000000"
 preserveAspectRatio="xMidYMid meet">

<g transform="translate(0.000000,500.000000) scale(0.100000,-0.100000)"
fill="#000000" stroke="none">
<path d="M2139 3113 c-24 -206 -25 -230 -11 -263 8 -19 52 -141 97 -270 l83
-235 33 -3 c18 -2 51 4 73 12 83 32 131 100 144 202 16 123 25 112 -86 107
-53 -3 -98 -9 -100 -14 -2 -5 -8 -9 -14 -9 -7 0 -8 29 -3 85 l7 86 -93 264
c-51 146 -95 265 -98 265 -4 0 -18 -102 -32 -227z"/>
<path d="M2615 3048 c-2 -7 -11 -77 -19 -156 l-16 -142 110 -203 c60 -111 110
-197 110 -190 0 46 33 240 42 248 8 7 9 6 4 -2 -5 -9 1 -9 21 2 15 7 62 24
103 37 62 19 77 28 89 52 18 38 1 97 -36 125 -32 26 -99 28 -132 5 -28 -20
-51 -72 -51 -116 0 -20 -4 -28 -9 -22 -5 5 -53 91 -106 192 -54 100 -99 182
-101 182 -3 0 -6 -6 -9 -12z"/>
<path d="M1893 2789 c3 -9 1 -21 -5 -27 -6 -6 -19 -82 -29 -169 -19 -172 -15
-204 32 -237 30 -20 98 -21 127 0 35 24 42 47 58 179 15 130 25 277 18 260 -2
-6 -39 -9 -89 -7 -65 3 -85 0 -85 -10 -1 -8 -7 -6 -17 7 -11 14 -14 15 -10 4z"/>
</g>
</svg>
